<svg width="14" height="14" viewBox="0 0 14 14" fill="none" xmlns="http://www.w3.org/2000/svg">
<path d="M1 5.21622C1 5.21622 1 4.24324 1 3.59459C1 2.94595 1.63158 2.2973 2.26316 2.2973C2.89474 2.2973 3.84211 2.2973 3.84211 2.2973M1 5.21622C1 5.21622 1 11.0541 1 11.7027C1 12.3514 1.31579 13 2.26316 13C3.21053 13 11.1053 13 11.7368 13C12.3684 13 13 12.3514 13 11.7027C13 11.0541 13 5.21622 13 5.21622M1 5.21622H13M13 5.21622C13 5.21622 13 4.24324 13 3.59459C13 2.94595 12.3684 2.2973 11.7368 2.2973C11.1053 2.2973 10.4737 2.2973 10.4737 2.2973M3.84211 2.2973V1M3.84211 2.2973H10.4737M10.4737 2.2973V1" stroke="#818181" stroke-width="2" stroke-linecap="round" stroke-linejoin="round"/>
</svg>
